<svg width="20" height="19" viewBox="0 0 20 19" fill="none" xmlns="http://www.w3.org/2000/svg">
<path id="Fill 1" fill-rule="evenodd" clip-rule="evenodd" d="M18.4871 1.58264C16.47 -0.527547 13.1988 -0.527547 11.1816 1.58264L1.1357 12.0918C-0.378567 13.6751 -0.378567 16.2412 1.1357 17.8245C2.38256 19.1297 4.26482 19.341 5.73518 18.4934C5.89004 18.485 6.04011 18.4241 6.15825 18.3021L16.2042 7.79296C17.2123 6.73828 17.2123 5.02809 16.2042 3.97257C15.1952 2.9179 13.5596 2.9179 12.5506 3.97257L4.33267 12.5712C4.07963 12.835 4.07963 13.2634 4.33267 13.5265C4.58412 13.7903 4.99361 13.7903 5.24506 13.5265L13.4646 4.92871C13.9699 4.40012 14.7873 4.40012 15.291 4.92871C15.7955 5.45647 15.7955 6.31157 15.291 6.83849L5.70086 16.8709C4.69268 17.9255 3.05707 17.9255 2.04809 16.8709C1.03991 15.8153 1.03991 14.1052 2.04809 13.0496L12.094 2.53878C13.6083 0.954679 16.0605 0.954679 17.5739 2.53878C19.0882 4.12121 19.0882 6.68734 17.5739 8.27145L8.44123 17.8245C8.18978 18.0884 8.18978 18.5159 8.44123 18.7798C8.69347 19.0428 9.10297 19.0428 9.35522 18.7798L18.4871 9.22592C20.5043 7.11573 20.5043 3.69283 18.4871 1.58264Z" fill="#FEFEFE"/>
</svg>
