<svg width="132" height="17" viewBox="0 0 132 17" fill="none" xmlns="http://www.w3.org/2000/svg">
<path fill-rule="evenodd" clip-rule="evenodd" d="M9.99346 6.16626L8.36383 8.05449C7.52505 7.2756 6.56645 7.01597 5.44009 7.01597C4.05011 7.01597 3.28322 7.44082 3.28322 8.17251C3.28322 8.9278 3.97821 9.35266 5.48802 9.44707C7.71678 9.58868 10.5447 10.0843 10.5447 13.1763C10.5447 15.2298 8.84314 17 5.46405 17C3.59477 17 1.72549 16.6932 0 14.9229L1.43791 12.8695C2.27669 13.79 4.1939 14.4745 5.51198 14.4981C6.61438 14.5217 7.64488 13.9552 7.64488 13.1055C7.64488 12.303 6.97386 11.9726 5.2963 11.8782C3.06754 11.7129 0.407407 10.9104 0.407407 8.26692C0.407407 5.57619 3.23529 4.63207 5.39216 4.63207C7.23747 4.63207 8.62745 4.98612 9.99346 6.16626ZM17.9739 4.72648C21.7364 4.72648 24.1569 7.46442 24.1569 10.7924C24.1569 14.144 21.8322 16.8584 17.9978 16.8584C14.1634 16.8584 11.8627 14.144 11.8627 10.7924C11.8627 7.46442 14.2113 4.72648 17.9739 4.72648ZM17.9978 7.34641C15.8889 7.34641 14.7865 9.04582 14.7865 10.7924C14.7865 12.5627 15.8649 14.2149 17.9978 14.2149C20.1307 14.2149 21.2092 12.5627 21.2092 10.7924C21.2092 9.04582 19.963 7.34641 17.9978 7.34641ZM26.2418 4.96251H29.1656V11.0521C29.1656 12.8223 30.1481 14.1677 32.0174 14.1677C33.8148 14.1677 35.037 12.6807 35.037 10.9104V4.96251H37.9368V16.6224H35.3246L35.1329 15.041C33.9107 16.2211 32.7843 16.7876 31.1307 16.7876C28.3028 16.7876 26.2418 14.6869 26.2418 11.0757V4.96251ZM41.7233 1.98855L44.6471 1.68171V4.98612H47.9063V7.46442H44.6231V12.4918C44.6231 13.6012 45.2462 14.144 46.1569 14.144C46.6122 14.144 47.1394 14.0024 47.5708 13.79L48.3856 16.2447C47.5468 16.5751 46.8519 16.7168 45.9651 16.7404C43.4009 16.8348 41.7233 15.395 41.7233 12.4918V7.46442H39.5185V4.98612H41.7233V1.98855ZM50.0871 0.0767094H53.0109V6.54391C54.0654 5.19854 55.3595 4.79729 56.7015 4.79729C60.0566 4.79729 61.5425 7.03957 61.5425 10.462V16.5988H58.6187V10.4856C58.6187 8.36133 57.4924 7.46442 55.9346 7.46442C54.2092 7.46442 53.0109 8.9042 53.0109 10.6508V16.5988H50.0871V0.0767094ZM74.7952 16.5987H71.8715V10.3676C71.8715 8.83339 71.0566 7.44082 69.451 7.44082C67.8693 7.44082 66.9346 8.83339 66.9346 10.3676V16.5987H64.0109V4.93891H66.719L66.9346 6.35508C67.5577 5.17494 68.9238 4.75009 70.0501 4.75009C71.4641 4.75009 72.878 5.31656 73.549 6.92156C74.6035 5.26935 75.9695 4.79729 77.5033 4.79729C80.8584 4.79729 82.512 6.82714 82.512 10.3204V16.5987H79.5882V10.3204C79.5882 8.78619 78.9412 7.48802 77.3595 7.48802C75.7778 7.48802 74.7952 8.83339 74.7952 10.3676V16.5987ZM97.2026 11.8074H87.976C88.1678 13.2471 89.4379 14.2857 91.4989 14.2857C92.5773 14.2857 93.9913 13.8844 94.6623 13.1999L96.5316 15.0174C95.2854 16.2919 93.2484 16.9056 91.451 16.9056C87.3769 16.9056 84.9564 14.4273 84.9564 10.698C84.9564 7.15758 87.4009 4.60847 91.2353 4.60847C95.1895 4.60847 97.658 7.01597 97.2026 11.8074ZM88.024 9.42346H94.3987C94.207 7.91288 93.0087 7.15758 91.3312 7.15758C89.7495 7.15758 88.4553 7.91288 88.024 9.42346ZM105.183 7.37001C103.314 7.37001 101.828 8.66817 101.828 10.7688C101.828 12.7987 103.314 14.1913 105.183 14.1913C107.028 14.1913 108.61 12.8695 108.61 10.7688C108.61 8.73898 107.028 7.37001 105.183 7.37001ZM108.802 0.100312H111.725V16.5988H108.993L108.802 14.9938C107.891 16.3863 106.429 16.8584 104.991 16.8584C101.516 16.8584 98.9041 14.5925 98.9041 10.7688C98.9041 6.75633 101.468 4.67928 104.919 4.67928C106.166 4.67928 108.107 5.34016 108.802 6.54391V0.100312ZM117.19 4.91531V16.5987H114.266V4.91531H117.19ZM114.002 1.68171C114.002 -0.560569 117.453 -0.560569 117.453 1.68171C117.453 3.92398 114.002 3.92398 114.002 1.68171ZM129.1 6.56751L129.196 4.96251H132V16.5988H129.244L129.1 14.8993C128.429 16.2683 126.584 16.9292 125.266 16.9528C121.767 16.9764 119.179 14.8521 119.179 10.7688C119.179 6.75633 121.887 4.65568 125.338 4.67928C126.919 4.67928 128.429 5.41097 129.1 6.56751ZM125.601 7.252C123.66 7.252 122.102 8.55016 122.102 10.7688C122.102 12.9875 123.66 14.3093 125.601 14.3093C130.203 14.3093 130.203 7.252 125.601 7.252Z" fill="white"/>
</svg>
